<svg xmlns="http://www.w3.org/2000/svg" width="145" height="143" fill="none" viewBox="0 0 145 143">
  <path fill="#485A8E" stroke="#000" stroke-width="3" d="M139.845 72.733c0 37.995-30.441 68.767-67.954 68.767-37.514 0-67.954-30.772-67.954-68.767 0-37.996 30.44-68.767 67.954-68.767 37.513 0 67.954 30.771 67.954 68.767Z"/>
  <path fill="#485A8E" stroke="#000" stroke-width="3" d="M139.845 72.733c0 37.995-30.441 68.767-67.954 68.767-37.514 0-67.954-30.772-67.954-68.767 0-37.996 30.44-68.767 67.954-68.767 37.513 0 67.954 30.771 67.954 68.767Z"/>
  <path fill="#000" d="M127.941 72.117c0 31.658-25.367 57.323-56.66 57.323-31.292 0-56.66-25.665-56.66-57.323 0-31.66 25.368-57.324 56.66-57.324 31.293 0 56.66 25.665 56.66 57.324Z"/>
  <path fill="#fff" stroke="#000" stroke-width="2" d="M90.387 30.203c0 16.139-12.93 29.202-28.853 29.202-15.925 0-28.853-13.063-28.853-29.202C32.68 14.063 45.609 1 61.534 1c15.924 0 28.853 13.063 28.853 29.203Z"/>
  <ellipse cx="60.924" cy="12.328" fill="#000" rx="7.311" ry="7.397"/>
  <ellipse cx="76.765" cy="23.422" fill="#000" rx="7.311" ry="7.397"/>
  <ellipse cx="53.613" cy="44.379" fill="#000" rx="7.311" ry="7.397"/>
  <ellipse cx="64.58" cy="23.422" fill="#000" rx="2.437" ry="2.466"/>
  <path fill="#000" d="M59.706 23.752c0 1.362-1.091 2.466-2.437 2.466-1.346 0-2.437-1.104-2.437-2.466 0-1.361 1.091-2.465 2.437-2.465 1.346 0 2.437 1.104 2.437 2.465Z"/>
  <ellipse cx="56.05" cy="30.819" fill="#000" rx="2.437" ry="2.466"/>
  <ellipse cx="62.143" cy="34.517" fill="#000" rx="2.437" ry="2.466"/>
  <ellipse cx="67.017" cy="29.586" fill="#000" rx="2.437" ry="2.466"/>
  <ellipse cx="71.891" cy="41.914" fill="#000" rx="7.311" ry="7.397"/>
  <ellipse cx="45.084" cy="25.888" fill="#000" rx="7.311" ry="7.397"/>
  <path fill="#fff" stroke="#000" d="m104.351 20.415 2.765 3.375-15.946 9.4v-4.768l6.587-2.987.052-.024.045-.034 6.497-4.962Zm-6.522 11.303 9.627-6.442.461 4.693-9.477 5.676-8.72 5.224 1.382-5.624 6.68-3.5.024-.012.023-.015Z"/>
  <path stroke="#000" d="m100.245 23.227 1.218 3.699m-5.138-1.379 1.154 3.423m-1.219 3.082v6.164m5.374-8.63v6.164"/>
  <path fill="#D4E0FF" d="M0 64.87a2 2 0 0 1 2-2h141a2 2 0 0 1 2 2v21.888a2 2 0 0 1-2 2H2a2 2 0 0 1-2-2V64.871Z"/>
  <path fill="#000" d="M24.25 69.813c.243.283.414.51.511.683a.999.999 0 0 1 .146.494c0 .188-.13.408-.39.659-.243.251-.487.376-.73.376-.326 0-.586-.047-.78-.14a1.19 1.19 0 0 1-.488-.448 3.9 3.9 0 0 0-.95-.965c-.374-.282-.959-.423-1.755-.423-.682 0-1.462.149-2.34.447-.86.298-1.478.667-1.852 1.106-.325.392-.609.988-.852 1.788a8.503 8.503 0 0 0-.342 2.33c0 .91.203 1.75.61 2.519a4.786 4.786 0 0 0 1.803 1.812c.796.455 1.746.682 2.851.682.601 0 1.219-.11 1.852-.33a4.155 4.155 0 0 0 1.674-1.12c.003-.003 0-.009-.004-.009-.005 0-.007-.005-.004-.009a1.474 1.474 0 0 1 1.088-.438c.26 0 .504.11.731.33.244.22.366.439.366.658 0 .236-.04.448-.122.636-.065.173-.195.369-.39.588a5.135 5.135 0 0 1-2.364 1.483c-.91.267-1.998.4-3.265.4-1.122 0-2.259-.259-3.412-.777-1.138-.517-2.015-1.145-2.632-1.882-.325-.455-.642-1.107-.95-1.954-.293-.863-.44-1.56-.44-2.094 0-1.365.212-2.66.634-3.883.439-1.24 1.089-2.228 1.95-2.966.569-.502 1.389-.879 2.461-1.13 1.073-.25 2.056-.376 2.949-.376 1.088 0 1.942.149 2.559.447.633.282 1.259.785 1.876 1.506Zm8.177.047a.535.535 0 0 0-.509.511c-.034.83-.051 1.633-.051 2.408 0 .957.065 2.36.195 4.212l.097 1.718c.037.646.06 1.25.07 1.814a.447.447 0 0 0 .515.446 2.94 2.94 0 0 1 .439-.047c.357 0 .642.086.853.258.21.173.316.44.316.8a.606.606 0 0 1-.292.542c-.195.125-.536.22-1.024.282-.47.047-1.161.07-2.07.07-1.008 0-1.764-.03-2.267-.093-.504-.063-.853-.18-1.048-.353-.195-.188-.293-.463-.293-.824 0-.267.09-.447.268-.541.18-.094.431-.141.756-.141l.512.023a.727.727 0 0 0 .769-.758l-.087-1.972a64.52 64.52 0 0 1-.146-4.142c0-.675.024-1.6.073-2.777.026-.693-.55-1.247-1.243-1.247-.357 0-.601-.063-.731-.189-.114-.125-.17-.384-.17-.776 0-.44.308-.722.925-.847.634-.126 1.593-.189 2.876-.189.991 0 1.73.032 2.218.094.503.063.755.204.755.424 0 .533-.122.886-.365 1.059-.228.157-.675.235-1.34.235Zm14.867-.212c0-.454.106-.847.317-1.176.227-.345.56-.518.999-.518.374 0 .707.07 1 .212.291.141.438.376.438.706 0 .643-.033 1.545-.098 2.706a48.326 48.326 0 0 0-.097 2.519c0 .863.032 2.016.097 3.46a72.16 72.16 0 0 1 .098 3.035c0 .518-.008.902-.025 1.153 0 .251-.146.502-.438.753-.276.236-.707.353-1.292.353-.309 0-.577-.047-.804-.14-.211-.11-.357-.228-.439-.354-.763-.894-1.876-2.416-3.338-4.566a152.84 152.84 0 0 0-1.527-2.193c-.705-.99-2.3-.387-2.3.829 0 .721-.016 1.663-.048 2.824-.016 1.145-.049 1.898-.098 2.259-.065.455-.21.808-.438 1.059-.212.235-.553.353-1.024.353-.357 0-.625-.094-.804-.282-.163-.204-.26-.55-.292-1.036-.017-.643.024-1.608.121-2.895.017-.204.041-.557.074-1.059.032-.502.048-.949.048-1.341 0-1.083-.057-2.322-.17-3.719-.098-1.537-.147-2.675-.147-3.412 0-.377.139-.667.415-.87A1.704 1.704 0 0 1 38.52 68c.186 0 .378.026.575.077.303.08.552.284.75.527 1.363 1.684 3.156 4.087 5.377 7.21l1.697 2.51c.193.287.618.165.618-.18 0-.8-.017-1.664-.05-2.59a160.86 160.86 0 0 0-.072-1.882 76.582 76.582 0 0 1-.122-4.025ZM64.64 81.369c.017.33-.024.564-.121.706-.098.125-.293.259-.585.4-.439.204-.959.337-1.56.4-.585.063-1.34.094-2.266.094H58.45c-1.446 0-2.519-.235-3.217-.706-.699-.486-1.138-1.067-1.316-1.742-.179-.674-.285-1.545-.317-2.612a39.23 39.23 0 0 1-.024-1.6c0-1.538.138-3.593.414-6.166.081-.753.365-1.295.853-1.624A2.797 2.797 0 0 1 56.5 68c.504 0 1.324-.016 2.461-.047l2.145-.023c.877 0 1.51.023 1.9.07.488.094.854.204 1.097.33.244.11.374.306.39.588 0 .314-.105.62-.317.918-.21.298-.536.447-.974.447a35.12 35.12 0 0 1-2.17-.094 35.059 35.059 0 0 0-2.144-.094c-.438 0-.837.023-1.194.07-.455.032-.78.087-.975.165-.195.078-.3.212-.316.4a47.57 47.57 0 0 0-.205 2.454c-.033.65.456 1.194 1.106 1.194.374 0 .886-.031 1.535-.094.163-.016.366-.031.61-.047.243-.016.52-.024.828-.024.179 0 .463.016.853.047l.756.024c.747 0 1.12.259 1.12.776 0 .314-.089.565-.267.754-.18.188-.496.33-.95.423-.618.11-1.617.165-2.998.165h-1.487c-.63 0-1.169.468-1.17 1.099v.078c0 .69.009 1.176.025 1.459.049 1.098.837 1.647 2.364 1.647.52 0 1.072.016 1.657.047l.902.024c.422 0 .771-.04 1.047-.118.277-.094.545-.172.805-.235.276-.079.528-.118.755-.118.309 0 .544.118.707.353a1.2 1.2 0 0 1 .243.73Zm16.537-13.368c.227 0 .504.15.829.447.34.283.511.526.511.73 0 .957-.032 2.267-.097 3.93-.016.408-.033.902-.049 1.483a69.61 69.61 0 0 0-.024 1.977c0 1.255.016 2.314.049 3.177.04.701.114 1.3.22 1.797.043.198.082.404.023.598a.888.888 0 0 1-.414.523 1.885 1.885 0 0 1-.902.236c-.633 0-1.04-.212-1.218-.636-.163-.424-.244-1.059-.244-1.906 0-2.587.023-4.799.069-6.637.014-.598-.683-.872-1.02-.376a55.746 55.746 0 0 0-1.267 1.976c-.65 1.052-1.177 1.852-1.584 2.4-.21.252-.398.424-.56.519-.163.094-.406.14-.731.14-.406 0-.723-.093-.95-.282-.212-.188-.464-.494-.756-.917-.422-.612-1.089-1.671-1.998-3.178-.375-.593-1.286-.328-1.276.374.022 1.509.065 2.812.13 3.91a40.63 40.63 0 0 1 .122 3.224c0 .376-.106.698-.317.965-.195.25-.495.376-.901.376-.44 0-.788-.078-1.048-.235-.244-.157-.374-.392-.39-.706.016-.267.024-.706.024-1.318 0-2.055-.032-3.97-.097-5.742l-.05-1.648c-.015-.486-.032-1.051-.048-1.694a87.007 87.007 0 0 1-.024-2.142c0-.941.528-1.412 1.584-1.412.325 0 .65.079.975.235.34.157.593.385.755.683.276.565.926 1.647 1.95 3.248.533.825.995 1.533 1.387 2.124.446.672 1.411.706 1.83.017.292-.455.536-.847.73-1.176a25.264 25.264 0 0 1 1.95-2.66 16.52 16.52 0 0 0 1.238-1.621 1.32 1.32 0 0 1 .176-.225c.147-.142.325-.264.536-.366.276-.141.568-.212.877-.212Zm12.143-.094c1.04 0 1.933.126 2.68.377a5.705 5.705 0 0 1 2.023 1.153c1.024.894 1.739 1.875 2.145 2.942.422 1.05.633 2.4.633 4.047 0 .408-.057.793-.17 1.154-.114.345-.285.769-.512 1.27l-.317.754c-.227.596-.698 1.153-1.413 1.67a9.28 9.28 0 0 1-2.413 1.2c-.893.299-1.706.448-2.437.448-1.495 0-2.802-.235-3.923-.706-1.105-.486-2.023-1.247-2.754-2.283a6.908 6.908 0 0 1-.877-1.836 6.756 6.756 0 0 1-.317-1.976c0-1.6.292-2.99.877-4.166.601-1.192 1.43-2.118 2.486-2.777.6-.345 1.316-.643 2.144-.894.845-.252 1.56-.377 2.145-.377Zm-5.069 8.214c0 .815.203 1.576.61 2.282.422.69.982 1.24 1.68 1.648a4.64 4.64 0 0 0 2.34.612c1.739 0 3.063-.424 3.972-1.271.927-.847 1.39-2.04 1.39-3.577 0-1.193-.138-2.134-.415-2.825-.276-.69-.772-1.31-1.486-1.859a3.489 3.489 0 0 0-1.267-.659c-.44-.141-.96-.212-1.56-.212-1.04 0-1.958.251-2.754.753-.796.503-1.413 1.2-1.852 2.095-.439.894-.658 1.899-.658 3.013Zm22.242-8.214c1.088 0 2.079.133 2.973.4.893.251 1.624.628 2.193 1.13 1.024.894 1.738 1.875 2.145 2.942.422 1.05.633 2.4.633 4.047 0 .346-.048.66-.146.942a8.752 8.752 0 0 1-.414 1.082 6.35 6.35 0 0 0-.345.799c-.078.23-.153.465-.298.66-.329.44-.797.863-1.404 1.271a10.62 10.62 0 0 1-2.389 1.224c-.861.314-1.616.47-2.266.47-3.136 0-5.369-1.035-6.702-3.106a8.155 8.155 0 0 1-.877-1.812 6.169 6.169 0 0 1-.292-1.835c0-1.6.292-2.99.877-4.166.601-1.192 1.43-2.118 2.486-2.777.633-.361 1.291-.66 1.974-.894.698-.252 1.316-.377 1.852-.377Zm-4.655 8.284c0 .847.195 1.546.585 2.095.365.494.902 1.026 1.609 1.596.16.129.341.229.534.3.525.19.891.32 1.098.386.244.063.52.095.829.095 1.641 0 2.948-.432 3.923-1.295.975-.863 1.462-2.047 1.462-3.553 0-1.193-.138-2.134-.414-2.825-.276-.69-.772-1.31-1.486-1.859-.374-.298-.853-.517-1.438-.659a7.675 7.675 0 0 0-1.852-.212c-1.008 0-1.877.29-2.608.871-.731.565-1.291 1.302-1.681 2.213a7.42 7.42 0 0 0-.561 2.847Zm18.882-8.237c2.21 0 3.956.298 5.24.894 1.299.58 2.282 1.232 2.949 1.954a7.603 7.603 0 0 1 1.315 2.07c.342.77.512 1.695.512 2.778 0 .8-.187 1.64-.56 2.518-.374.863-.861 1.561-1.462 2.095a13.144 13.144 0 0 1-1.804 1.412c-.552.36-1.308.659-2.266.894-.943.22-2.145.33-3.607.33-1.105 0-2.104-.118-2.997-.354-.894-.25-1.341-.666-1.341-1.247 0-.235.106-.416.317-.541.228-.141.471-.212.731-.212.152 0 .308-.118.323-.27.093-.948.14-1.949.14-3.001 0-1.302-.032-2.377-.097-3.225a44.933 44.933 0 0 0-.268-2.565 62.59 62.59 0 0 1-.122-.918 15.743 15.743 0 0 1-.073-1.53c0-.329.17-.603.511-.823.342-.235.691-.353 1.048-.353.212 0 .496.016.853.047.293.031.512.047.658.047Zm-.128 11.205c-.065.842.502 1.621 1.347 1.621a7.454 7.454 0 0 0 3.046-.635c.959-.44 1.73-1.043 2.315-1.812.585-.785.877-1.687.877-2.707 0-1.067-.195-1.977-.584-2.73-.39-.753-.991-1.373-1.804-1.859-.601-.36-1.34-.62-2.217-.777a13.702 13.702 0 0 0-1.755-.216 1.255 1.255 0 0 0-1.34 1.37c0 .188.016.517.048.988.098 1.82.147 3.287.147 4.401 0 .88-.027 1.666-.08 2.356Z"/>
  <path fill="#D4E0FF" d="M0 64.87a2 2 0 0 1 2-2h141a2 2 0 0 1 2 2v21.888a2 2 0 0 1-2 2H2a2 2 0 0 1-2-2V64.871Z"/>
  <path fill="#000" d="M24.25 69.813c.243.283.414.51.511.683a.999.999 0 0 1 .146.494c0 .188-.13.408-.39.659-.243.251-.487.376-.73.376-.326 0-.586-.047-.78-.14a1.19 1.19 0 0 1-.488-.448 3.9 3.9 0 0 0-.95-.965c-.374-.282-.959-.423-1.755-.423-.682 0-1.462.149-2.34.447-.86.298-1.478.667-1.852 1.106-.325.392-.609.988-.852 1.788a8.503 8.503 0 0 0-.342 2.33c0 .91.203 1.75.61 2.519a4.786 4.786 0 0 0 1.803 1.812c.796.455 1.746.682 2.851.682.601 0 1.219-.11 1.852-.33a4.155 4.155 0 0 0 1.674-1.12c.003-.003 0-.009-.004-.009-.005 0-.007-.005-.004-.009a1.474 1.474 0 0 1 1.088-.438c.26 0 .504.11.731.33.244.22.366.439.366.658 0 .236-.04.448-.122.636-.065.173-.195.369-.39.588a5.135 5.135 0 0 1-2.364 1.483c-.91.267-1.998.4-3.265.4-1.122 0-2.259-.259-3.412-.777-1.138-.517-2.015-1.145-2.632-1.882-.325-.455-.642-1.107-.95-1.954-.293-.863-.44-1.56-.44-2.094 0-1.365.212-2.66.634-3.883.439-1.24 1.089-2.228 1.95-2.966.569-.502 1.389-.879 2.461-1.13 1.073-.25 2.056-.376 2.949-.376 1.088 0 1.942.149 2.559.447.633.282 1.259.785 1.876 1.506Zm8.177.047a.535.535 0 0 0-.509.511c-.034.83-.051 1.633-.051 2.408 0 .957.065 2.36.195 4.212l.097 1.718c.037.646.06 1.25.07 1.814a.447.447 0 0 0 .515.446 2.94 2.94 0 0 1 .439-.047c.357 0 .642.086.853.258.21.173.316.44.316.8a.606.606 0 0 1-.292.542c-.195.125-.536.22-1.024.282-.47.047-1.161.07-2.07.07-1.008 0-1.764-.03-2.267-.093-.504-.063-.853-.18-1.048-.353-.195-.188-.293-.463-.293-.824 0-.267.09-.447.268-.541.18-.094.431-.141.756-.141l.512.023a.727.727 0 0 0 .769-.758l-.087-1.972a64.52 64.52 0 0 1-.146-4.142c0-.675.024-1.6.073-2.777.026-.693-.55-1.247-1.243-1.247-.357 0-.601-.063-.731-.189-.114-.125-.17-.384-.17-.776 0-.44.308-.722.925-.847.634-.126 1.593-.189 2.876-.189.991 0 1.73.032 2.218.094.503.063.755.204.755.424 0 .533-.122.886-.365 1.059-.228.157-.675.235-1.34.235Zm14.867-.212c0-.454.106-.847.317-1.176.227-.345.56-.518.999-.518.374 0 .707.07 1 .212.291.141.438.376.438.706 0 .643-.033 1.545-.098 2.706a48.326 48.326 0 0 0-.097 2.519c0 .863.032 2.016.097 3.46a72.16 72.16 0 0 1 .098 3.035c0 .518-.008.902-.025 1.153 0 .251-.146.502-.438.753-.276.236-.707.353-1.292.353-.309 0-.577-.047-.804-.14-.211-.11-.357-.228-.439-.354-.763-.894-1.876-2.416-3.338-4.566a152.84 152.84 0 0 0-1.527-2.193c-.705-.99-2.3-.387-2.3.829 0 .721-.016 1.663-.048 2.824-.016 1.145-.049 1.898-.098 2.259-.065.455-.21.808-.438 1.059-.212.235-.553.353-1.024.353-.357 0-.625-.094-.804-.282-.163-.204-.26-.55-.292-1.036-.017-.643.024-1.608.121-2.895.017-.204.041-.557.074-1.059.032-.502.048-.949.048-1.341 0-1.083-.057-2.322-.17-3.719-.098-1.537-.147-2.675-.147-3.412 0-.377.139-.667.415-.87A1.704 1.704 0 0 1 38.52 68c.186 0 .378.026.575.077.303.08.552.284.75.527 1.363 1.684 3.156 4.087 5.377 7.21l1.697 2.51c.193.287.618.165.618-.18 0-.8-.017-1.664-.05-2.59a160.86 160.86 0 0 0-.072-1.882 76.582 76.582 0 0 1-.122-4.025ZM64.64 81.369c.017.33-.024.564-.121.706-.098.125-.293.259-.585.4-.439.204-.959.337-1.56.4-.585.063-1.34.094-2.266.094H58.45c-1.446 0-2.519-.235-3.217-.706-.699-.486-1.138-1.067-1.316-1.742-.179-.674-.285-1.545-.317-2.612a39.23 39.23 0 0 1-.024-1.6c0-1.538.138-3.593.414-6.166.081-.753.365-1.295.853-1.624A2.797 2.797 0 0 1 56.5 68c.504 0 1.324-.016 2.461-.047l2.145-.023c.877 0 1.51.023 1.9.07.488.094.854.204 1.097.33.244.11.374.306.39.588 0 .314-.105.62-.317.918-.21.298-.536.447-.974.447a35.12 35.12 0 0 1-2.17-.094 35.059 35.059 0 0 0-2.144-.094c-.438 0-.837.023-1.194.07-.455.032-.78.087-.975.165-.195.078-.3.212-.316.4a47.57 47.57 0 0 0-.205 2.454c-.033.65.456 1.194 1.106 1.194.374 0 .886-.031 1.535-.094.163-.016.366-.031.61-.047.243-.016.52-.024.828-.024.179 0 .463.016.853.047l.756.024c.747 0 1.12.259 1.12.776 0 .314-.089.565-.267.754-.18.188-.496.33-.95.423-.618.11-1.617.165-2.998.165h-1.487c-.63 0-1.169.468-1.17 1.099v.078c0 .69.009 1.176.025 1.459.049 1.098.837 1.647 2.364 1.647.52 0 1.072.016 1.657.047l.902.024c.422 0 .771-.04 1.047-.118.277-.094.545-.172.805-.235.276-.079.528-.118.755-.118.309 0 .544.118.707.353a1.2 1.2 0 0 1 .243.73Zm16.537-13.368c.227 0 .504.15.829.447.34.283.511.526.511.73 0 .957-.032 2.267-.097 3.93-.016.408-.033.902-.049 1.483a69.61 69.61 0 0 0-.024 1.977c0 1.255.016 2.314.049 3.177.04.701.114 1.3.22 1.797.043.198.082.404.023.598a.888.888 0 0 1-.414.523 1.885 1.885 0 0 1-.902.236c-.633 0-1.04-.212-1.218-.636-.163-.424-.244-1.059-.244-1.906 0-2.587.023-4.799.069-6.637.014-.598-.683-.872-1.02-.376a55.746 55.746 0 0 0-1.267 1.976c-.65 1.052-1.177 1.852-1.584 2.4-.21.252-.398.424-.56.519-.163.094-.406.14-.731.14-.406 0-.723-.093-.95-.282-.212-.188-.464-.494-.756-.917-.422-.612-1.089-1.671-1.998-3.178-.375-.593-1.286-.328-1.276.374.022 1.509.065 2.812.13 3.91a40.63 40.63 0 0 1 .122 3.224c0 .376-.106.698-.317.965-.195.25-.495.376-.901.376-.44 0-.788-.078-1.048-.235-.244-.157-.374-.392-.39-.706.016-.267.024-.706.024-1.318 0-2.055-.032-3.97-.097-5.742l-.05-1.648c-.015-.486-.032-1.051-.048-1.694a87.007 87.007 0 0 1-.024-2.142c0-.941.528-1.412 1.584-1.412.325 0 .65.079.975.235.34.157.593.385.755.683.276.565.926 1.647 1.95 3.248.533.825.995 1.533 1.387 2.124.446.672 1.411.706 1.83.017.292-.455.536-.847.73-1.176a25.264 25.264 0 0 1 1.95-2.66 16.52 16.52 0 0 0 1.238-1.621 1.32 1.32 0 0 1 .176-.225c.147-.142.325-.264.536-.366.276-.141.568-.212.877-.212Zm12.143-.094c1.04 0 1.933.126 2.68.377a5.705 5.705 0 0 1 2.023 1.153c1.024.894 1.739 1.875 2.145 2.942.422 1.05.633 2.4.633 4.047 0 .408-.057.793-.17 1.154-.114.345-.285.769-.512 1.27l-.317.754c-.227.596-.698 1.153-1.413 1.67a9.28 9.28 0 0 1-2.413 1.2c-.893.299-1.706.448-2.437.448-1.495 0-2.802-.235-3.923-.706-1.105-.486-2.023-1.247-2.754-2.283a6.908 6.908 0 0 1-.877-1.836 6.756 6.756 0 0 1-.317-1.976c0-1.6.292-2.99.877-4.166.601-1.192 1.43-2.118 2.486-2.777.6-.345 1.316-.643 2.144-.894.845-.252 1.56-.377 2.145-.377Zm-5.069 8.214c0 .815.203 1.576.61 2.282.422.69.982 1.24 1.68 1.648a4.64 4.64 0 0 0 2.34.612c1.739 0 3.063-.424 3.972-1.271.927-.847 1.39-2.04 1.39-3.577 0-1.193-.138-2.134-.415-2.825-.276-.69-.772-1.31-1.486-1.859a3.489 3.489 0 0 0-1.267-.659c-.44-.141-.96-.212-1.56-.212-1.04 0-1.958.251-2.754.753-.796.503-1.413 1.2-1.852 2.095-.439.894-.658 1.899-.658 3.013Zm22.242-8.214c1.088 0 2.079.133 2.973.4.893.251 1.624.628 2.193 1.13 1.024.894 1.738 1.875 2.145 2.942.422 1.05.633 2.4.633 4.047 0 .346-.048.66-.146.942a8.752 8.752 0 0 1-.414 1.082 6.35 6.35 0 0 0-.345.799c-.078.23-.153.465-.298.66-.329.44-.797.863-1.404 1.271a10.62 10.62 0 0 1-2.389 1.224c-.861.314-1.616.47-2.266.47-3.136 0-5.369-1.035-6.702-3.106a8.155 8.155 0 0 1-.877-1.812 6.169 6.169 0 0 1-.292-1.835c0-1.6.292-2.99.877-4.166.601-1.192 1.43-2.118 2.486-2.777.633-.361 1.291-.66 1.974-.894.698-.252 1.316-.377 1.852-.377Zm-4.655 8.284c0 .847.195 1.546.585 2.095.365.494.902 1.026 1.609 1.596.16.129.341.229.534.3.525.19.891.32 1.098.386.244.063.52.095.829.095 1.641 0 2.948-.432 3.923-1.295.975-.863 1.462-2.047 1.462-3.553 0-1.193-.138-2.134-.414-2.825-.276-.69-.772-1.31-1.486-1.859-.374-.298-.853-.517-1.438-.659a7.675 7.675 0 0 0-1.852-.212c-1.008 0-1.877.29-2.608.871-.731.565-1.291 1.302-1.681 2.213a7.42 7.42 0 0 0-.561 2.847Zm18.882-8.237c2.21 0 3.956.298 5.24.894 1.299.58 2.282 1.232 2.949 1.954a7.603 7.603 0 0 1 1.315 2.07c.342.77.512 1.695.512 2.778 0 .8-.187 1.64-.56 2.518-.374.863-.861 1.561-1.462 2.095a13.144 13.144 0 0 1-1.804 1.412c-.552.36-1.308.659-2.266.894-.943.22-2.145.33-3.607.33-1.105 0-2.104-.118-2.997-.354-.894-.25-1.341-.666-1.341-1.247 0-.235.106-.416.317-.541.228-.141.471-.212.731-.212.152 0 .308-.118.323-.27.093-.948.14-1.949.14-3.001 0-1.302-.032-2.377-.097-3.225a44.933 44.933 0 0 0-.268-2.565 62.59 62.59 0 0 1-.122-.918 15.743 15.743 0 0 1-.073-1.53c0-.329.17-.603.511-.823.342-.235.691-.353 1.048-.353.212 0 .496.016.853.047.293.031.512.047.658.047Zm-.128 11.205c-.065.842.502 1.621 1.347 1.621a7.454 7.454 0 0 0 3.046-.635c.959-.44 1.73-1.043 2.315-1.812.585-.785.877-1.687.877-2.707 0-1.067-.195-1.977-.584-2.73-.39-.753-.991-1.373-1.804-1.859-.601-.36-1.34-.62-2.217-.777a13.702 13.702 0 0 0-1.755-.216 1.255 1.255 0 0 0-1.34 1.37c0 .188.016.517.048.988.098 1.82.147 3.287.147 4.401 0 .88-.027 1.666-.08 2.356Z"/>
</svg>
